<?xml version="1.0" encoding="utf-8"?>
<!-- Generator: Adobe Illustrator 14.0.0, SVG Export Plug-In . SVG Version: 6.00 Build 43363)  -->
<!DOCTYPE svg PUBLIC "-//W3C//DTD SVG 1.1 Basic//EN" "http://www.w3.org/Graphics/SVG/1.1/DTD/svg11-basic.dtd">
<svg version="1.1" baseProfile="basic" id="Layer_1"
	 xmlns="http://www.w3.org/2000/svg" xmlns:xlink="http://www.w3.org/1999/xlink" x="0px" y="0px" width="64px" height="64px"
	 viewBox="0 0 64 64" xml:space="preserve">
<g>
	<linearGradient id="SVGID_1_" gradientUnits="userSpaceOnUse" x1="32.4067" y1="65.9463" x2="32.4067" y2="-4.8316">
		<stop  offset="0.2" style="stop-color:#EE2B24"/>
		<stop  offset="0.4402" style="stop-color:#E02825"/>
		<stop  offset="0.8306" style="stop-color:#C62225"/>
		<stop  offset="1" style="stop-color:#B92025"/>
	</linearGradient>
	<path fill="url(#SVGID_1_)" d="M65.406,57.463c0,4.125-3.375,7.5-7.5,7.5H6.907c-4.125,0-7.5-3.375-7.5-7.5v-51
		c0-4.125,3.375-7.5,7.5-7.5h50.999c4.125,0,7.5,3.375,7.5,7.5V57.463z"/>
	
		<linearGradient id="SVGID_2_" gradientUnits="userSpaceOnUse" x1="-598.5894" y1="-859.8691" x2="-598.5894" y2="-840.6924" gradientTransform="matrix(-1 0 0 -1 -566.1826 -800.8389)">
		<stop  offset="0" style="stop-color:#F37554"/>
		<stop  offset="0.0722" style="stop-color:#F36D4C"/>
		<stop  offset="0.3089" style="stop-color:#F05437"/>
		<stop  offset="0.5444" style="stop-color:#EF402B"/>
		<stop  offset="0.7763" style="stop-color:#EE3125"/>
		<stop  offset="1" style="stop-color:#EE2B24"/>
	</linearGradient>
	<path fill="url(#SVGID_2_)" d="M61.454,34.532v23.294c0,1.984-1.626,3.609-3.609,3.609H6.969c-1.985,0-3.609-1.625-3.609-3.609
		V34.532H61.454z"/>
	<linearGradient id="SVGID_3_" gradientUnits="userSpaceOnUse" x1="32.4067" y1="5.7788" x2="32.4067" y2="31.9996">
		<stop  offset="0.05" style="stop-color:#FBC0A8"/>
		<stop  offset="0.2586" style="stop-color:#F7997A"/>
		<stop  offset="0.5083" style="stop-color:#F37251"/>
		<stop  offset="0.7242" style="stop-color:#F05135"/>
		<stop  offset="0.8952" style="stop-color:#EE3727"/>
		<stop  offset="1" style="stop-color:#EE2B24"/>
	</linearGradient>
	<path fill="url(#SVGID_3_)" d="M3.359,39.275V6.1c0-1.985,1.624-3.609,3.609-3.609h50.876c1.983,0,3.609,1.625,3.609,3.609v33.176
		H3.359z"/>
</g>
<path fill="#FFFFFF" d="M41.168,44.279l-2.729-6.994H26.373l-2.728,6.994H41.168z M42.488,48.029H22.324l-2.421,6.126
	c-0.04,0.114-0.022,0.241,0.048,0.341s0.185,0.158,0.306,0.158h24.3c0.122,0,0.236-0.059,0.307-0.158s0.088-0.227,0.047-0.341
	L42.488,48.029z M30.196,26.432l-2.502,7.104h9.425l-2.502-7.101c1.537-0.806,2.602-2.396,2.602-4.248
	c0-2.651-2.156-4.808-4.811-4.808c-2.651,0-4.811,2.156-4.811,4.808C27.597,24.035,28.659,25.626,30.196,26.432z M23.761,27.152
	c0.407-0.354,0.45-0.97,0.097-1.377c-0.853-0.981-1.323-2.235-1.323-3.536c0-1.345,0.497-2.631,1.399-3.627
	c0.363-0.398,0.333-1.014-0.067-1.377c-0.398-0.36-1.014-0.331-1.377,0.067c-1.228,1.356-1.904,3.108-1.904,4.937
	c0,1.77,0.639,3.48,1.8,4.816C22.738,27.461,23.354,27.504,23.761,27.152z M42.279,22.239c0,1.298-0.472,2.555-1.326,3.536
	c-0.353,0.407-0.309,1.022,0.098,1.377c0.405,0.352,1.021,0.309,1.375-0.097c1.163-1.339,1.803-3.05,1.803-4.816
	c0-1.828-0.676-3.58-1.905-4.937c-0.36-0.398-0.979-0.428-1.377-0.067c-0.398,0.363-0.428,0.979-0.067,1.377
	C41.781,19.608,42.279,20.895,42.279,22.239z M46.132,12.814c-0.363-0.398-0.979-0.428-1.377-0.064
	c-0.398,0.36-0.428,0.979-0.064,1.377c2.021,2.221,3.135,5.104,3.135,8.112c0,2.962-1.084,5.81-3.053,8.016
	c-0.357,0.401-0.322,1.018,0.079,1.377c0.402,0.357,1.02,0.322,1.377-0.079c2.288-2.563,3.547-5.871,3.547-9.313
	C49.775,18.741,48.481,15.396,46.132,12.814z M49.896,8.092c-0.363-0.398-0.98-0.428-1.379-0.064
	c-0.396,0.363-0.426,0.979-0.063,1.377c3.202,3.516,4.966,8.074,4.966,12.835c0,4.709-1.734,9.233-4.881,12.735
	c-0.36,0.401-0.325,1.017,0.073,1.377c0.401,0.36,1.018,0.326,1.377-0.073c3.471-3.861,5.381-8.848,5.381-14.039
	C55.371,16.989,53.427,11.965,49.896,8.092z M20.037,30.255c-1.967-2.209-3.051-5.057-3.051-8.016c0-3.012,1.115-5.892,3.139-8.112
	c0.362-0.398,0.334-1.014-0.064-1.377s-1.015-0.334-1.377,0.064c-2.353,2.581-3.647,5.927-3.647,9.425
	c0,3.439,1.26,6.746,3.545,9.313c0.359,0.401,0.976,0.437,1.377,0.079S20.396,30.658,20.037,30.255z M11.393,22.239
	c0-4.764,1.764-9.322,4.967-12.835c0.362-0.398,0.334-1.014-0.064-1.377s-1.014-0.334-1.377,0.064
	c-3.53,3.87-5.476,8.895-5.476,14.147c0,5.191,1.91,10.178,5.379,14.039c0.36,0.399,0.977,0.434,1.377,0.073
	c0.401-0.36,0.434-0.976,0.073-1.377C13.126,31.472,11.393,26.949,11.393,22.239z"/>
</svg>
