<?xml version="1.0" encoding="utf-8"?>
<!-- Generator: Adobe Illustrator 14.0.0, SVG Export Plug-In . SVG Version: 6.00 Build 43363)  -->
<!DOCTYPE svg PUBLIC "-//W3C//DTD SVG 1.1//EN" "http://www.w3.org/Graphics/SVG/1.1/DTD/svg11.dtd">
<svg version="1.1" id="Layer_1" xmlns="http://www.w3.org/2000/svg" xmlns:xlink="http://www.w3.org/1999/xlink" x="0px" y="0px"
	 width="64px" height="64px" viewBox="0 0 64 64" enable-background="new 0 0 64 64" xml:space="preserve">
<g>
	<g id="XMLID_1_">
		<g>
			
				<radialGradient id="SVGID_1_" cx="29.1748" cy="-122.2139" r="127.1615" gradientTransform="matrix(1 0 0 1.3425 0 41.8625)" gradientUnits="userSpaceOnUse">
				<stop  offset="0" style="stop-color:#F9F9FA"/>
				<stop  offset="0.2487" style="stop-color:#F6F6F6"/>
				<stop  offset="0.4454" style="stop-color:#ECECEC"/>
				<stop  offset="0.6244" style="stop-color:#DCDBDB"/>
				<stop  offset="0.7929" style="stop-color:#C4C4C4"/>
				<stop  offset="0.9525" style="stop-color:#A7A6A6"/>
				<stop  offset="1" style="stop-color:#9B9B9B"/>
			</radialGradient>
			<path fill="url(#SVGID_1_)" d="M63.62,22.46v21.78c0,5.55-3.36,10.05-7.49,10.05H8.09c-4.13,0-7.48-4.5-7.48-10.05V22.46
				c0-5.55,3.35-10.05,7.48-10.05h1.95c0.01,0.82,0.17,1.46,2,1.49c0.22,0.05,0.52,0.08,0.91,0.08h4.81c0.42,0,0.74-0.03,0.97-0.09
				c1.8-0.05,1.85-0.68,1.84-1.48h35.56C60.27,12.41,63.62,16.91,63.62,22.46z M62.05,44.97V25.25c0-1.34-0.3-2.61-0.819-3.69
				c-0.311-3.77-2.521-6.8-5.101-6.8H8.09c-2.78,0-5.14,3.53-5.14,7.7v2.79v18.99v0.729c0,3.05,1.55,5.71,3.63,6.62
				c0.08,0.04,0.17,0.08,0.25,0.101c0.11,0.05,0.22,0.09,0.34,0.119c0.3,0.091,0.61,0.131,0.92,0.131c0.02,0,0.05,0,0.07,0h35.3
				h12.67h0.71C59.67,51.94,62.05,48.75,62.05,44.97z"/>
			
				<radialGradient id="SVGID_2_" cx="21.3496" cy="-52.5557" r="153.9519" gradientTransform="matrix(1 0 0 0.8933 0 -5.6061)" gradientUnits="userSpaceOnUse">
				<stop  offset="0" style="stop-color:#F9F9FA"/>
				<stop  offset="0.2487" style="stop-color:#F6F6F6"/>
				<stop  offset="0.4454" style="stop-color:#ECECEC"/>
				<stop  offset="0.6244" style="stop-color:#DCDBDB"/>
				<stop  offset="0.7929" style="stop-color:#C4C4C4"/>
				<stop  offset="0.9525" style="stop-color:#A7A6A6"/>
				<stop  offset="1" style="stop-color:#9B9B9B"/>
			</radialGradient>
			<path fill="url(#SVGID_2_)" d="M62.05,25.25v19.72c0,3.78-2.38,6.971-5.21,6.971h-0.71c2.79,0,5.14-3.53,5.14-7.7V22.46
				c0-0.3-0.01-0.61-0.039-0.9C61.75,22.64,62.05,23.91,62.05,25.25z"/>
			
				<radialGradient id="SVGID_3_" cx="21.3496" cy="-52.5557" r="153.9519" gradientTransform="matrix(1 0 0 0.8933 0 -5.6061)" gradientUnits="userSpaceOnUse">
				<stop  offset="0" style="stop-color:#F9F9FA"/>
				<stop  offset="0.2487" style="stop-color:#F6F6F6"/>
				<stop  offset="0.4454" style="stop-color:#ECECEC"/>
				<stop  offset="0.6244" style="stop-color:#DCDBDB"/>
				<stop  offset="0.7929" style="stop-color:#C4C4C4"/>
				<stop  offset="0.9525" style="stop-color:#A7A6A6"/>
				<stop  offset="1" style="stop-color:#9B9B9B"/>
			</radialGradient>
			<path fill="url(#SVGID_3_)" d="M61.27,22.46v21.78c0,4.17-2.35,7.7-5.14,7.7H43.46V49.59c7.89,0,14.29-6.39,14.29-14.28
				c0-7.89-6.4-14.29-14.29-14.29v-2.74h13.38c1.82,0,3.46,1.32,4.391,3.28C61.26,21.85,61.27,22.16,61.27,22.46z"/>
			<radialGradient id="SVGID_4_" cx="35.4385" cy="8.1074" r="208.6478" gradientUnits="userSpaceOnUse">
				<stop  offset="0" style="stop-color:#F9F9FA"/>
				<stop  offset="0.2487" style="stop-color:#F6F6F6"/>
				<stop  offset="0.4454" style="stop-color:#ECECEC"/>
				<stop  offset="0.6244" style="stop-color:#DCDBDB"/>
				<stop  offset="0.7929" style="stop-color:#C4C4C4"/>
				<stop  offset="0.9525" style="stop-color:#A7A6A6"/>
				<stop  offset="1" style="stop-color:#9B9B9B"/>
			</radialGradient>
			<path fill="url(#SVGID_4_)" d="M61.23,21.56c-0.931-1.96-2.57-3.28-4.391-3.28H43.46H8.16c-2.82,0-5.21,3.19-5.21,6.97v-2.79
				c0-4.17,2.36-7.7,5.14-7.7h48.04C58.71,14.76,60.92,17.79,61.23,21.56z"/>
			<radialGradient id="SVGID_5_" cx="42.1299" cy="-70.8301" r="113.5604" gradientUnits="userSpaceOnUse">
				<stop  offset="0" style="stop-color:#F9F9FA"/>
				<stop  offset="0.2487" style="stop-color:#F6F6F6"/>
				<stop  offset="0.4454" style="stop-color:#ECECEC"/>
				<stop  offset="0.6244" style="stop-color:#DCDBDB"/>
				<stop  offset="0.7929" style="stop-color:#C4C4C4"/>
				<stop  offset="0.9525" style="stop-color:#A7A6A6"/>
				<stop  offset="1" style="stop-color:#9B9B9B"/>
			</radialGradient>
			<path fill="url(#SVGID_5_)" d="M43.46,21.02c7.89,0,14.29,6.4,14.29,14.29c0,7.891-6.4,14.28-14.29,14.28S29.18,43.2,29.18,35.31
				C29.18,27.42,35.57,21.02,43.46,21.02z M55.4,35.31c0-6.58-5.36-11.939-11.94-11.939S31.52,28.73,31.52,35.31
				c0,6.58,5.36,11.931,11.94,11.931S55.4,41.89,55.4,35.31z"/>
			
				<radialGradient id="SVGID_6_" cx="45.6123" cy="-7.9443" r="32.5273" gradientTransform="matrix(1 0 0 0.9792 0 -0.1651)" gradientUnits="userSpaceOnUse">
				<stop  offset="0" style="stop-color:#F9F9FA"/>
				<stop  offset="0.2487" style="stop-color:#F6F6F6"/>
				<stop  offset="0.4454" style="stop-color:#ECECEC"/>
				<stop  offset="0.6244" style="stop-color:#DCDBDB"/>
				<stop  offset="0.7929" style="stop-color:#C4C4C4"/>
				<stop  offset="0.9525" style="stop-color:#A7A6A6"/>
				<stop  offset="1" style="stop-color:#9B9B9B"/>
			</radialGradient>
			<path fill="url(#SVGID_6_)" d="M52.95,35.41c0.01,5.12-4.25,9.29-9.49,9.29c-5.229,0-9.49-4.17-9.49-9.29
				c0-5.13,4.261-9.3,9.49-9.3C48.7,26.11,52.95,30.28,52.95,35.41z M51.36,35.8c0-4.05-3.38-7.34-7.53-7.34
				c-4.14,0-7.521,3.29-7.521,7.34s3.381,7.34,7.521,7.34C47.98,43.14,51.36,39.85,51.36,35.8z"/>
			<radialGradient id="SVGID_7_" cx="35.8291" cy="-22.8115" r="94.8253" gradientUnits="userSpaceOnUse">
				<stop  offset="0" style="stop-color:#F9F9FA"/>
				<stop  offset="0.2487" style="stop-color:#F6F6F6"/>
				<stop  offset="0.4454" style="stop-color:#ECECEC"/>
				<stop  offset="0.6244" style="stop-color:#DCDBDB"/>
				<stop  offset="0.7929" style="stop-color:#C4C4C4"/>
				<stop  offset="0.9525" style="stop-color:#A7A6A6"/>
				<stop  offset="1" style="stop-color:#9B9B9B"/>
			</radialGradient>
			<path fill="url(#SVGID_7_)" d="M43.46,23.37c6.58,0,11.94,5.36,11.94,11.939c0,6.58-5.36,11.931-11.94,11.931
				S31.52,41.89,31.52,35.31C31.52,28.73,36.88,23.37,43.46,23.37z M43.46,44.7c5.24,0,9.5-4.17,9.49-9.29c0-5.13-4.25-9.3-9.49-9.3
				c-5.229,0-9.49,4.17-9.49,9.3C33.97,40.53,38.23,44.7,43.46,44.7z"/>
			<path fill="#C7E7E2" d="M43.83,28.46c4.15,0,7.53,3.29,7.53,7.34s-3.38,7.34-7.53,7.34c-4.14,0-7.521-3.29-7.521-7.34
				S39.69,28.46,43.83,28.46z M43.83,41.01c2.41,0,4.43-1.54,5.13-3.649c-1.32,0.949-3.13,1.529-5.13,1.529
				c-1.99,0-3.8-0.58-5.12-1.529C39.4,39.47,41.43,41.01,43.83,41.01z M47.2,31.99c0-1.27-1.59-2.3-3.54-2.3s-3.54,1.03-3.54,2.3
				c0,1.27,1.59,2.3,3.54,2.3S47.2,33.26,47.2,31.99z"/>
			<radialGradient id="SVGID_8_" cx="43.46" cy="49.5918" r="24.4669" gradientUnits="userSpaceOnUse">
				<stop  offset="0" style="stop-color:#ECF3D7"/>
				<stop  offset="0.118" style="stop-color:#ECF3D7"/>
				<stop  offset="0.1687" style="stop-color:#E8F1D2"/>
				<stop  offset="0.2376" style="stop-color:#DCEBC0"/>
				<stop  offset="0.3169" style="stop-color:#C8E1A6"/>
				<stop  offset="0.4041" style="stop-color:#ABD17D"/>
				<stop  offset="0.4966" style="stop-color:#89BA4A"/>
				<stop  offset="0.5562" style="stop-color:#6FA742"/>
				<stop  offset="0.6403" style="stop-color:#649640"/>
				<stop  offset="0.8093" style="stop-color:#456730"/>
				<stop  offset="0.8315" style="stop-color:#435F2C"/>
				<stop  offset="1" style="stop-color:#435F2C"/>
			</radialGradient>
			<path fill="url(#SVGID_8_)" d="M48.96,37.36c-0.7,2.109-2.72,3.649-5.13,3.649c-2.4,0-4.43-1.54-5.12-3.649
				c1.32,0.949,3.13,1.529,5.12,1.529C45.83,38.89,47.64,38.31,48.96,37.36z"/>
			
				<radialGradient id="SVGID_9_" cx="43.6602" cy="29.6958" r="12.0249" gradientTransform="matrix(1 0 0 0.7648 0 6.9853)" gradientUnits="userSpaceOnUse">
				<stop  offset="0" style="stop-color:#ECF3D7"/>
				<stop  offset="0.118" style="stop-color:#ECF3D7"/>
				<stop  offset="0.1687" style="stop-color:#E8F1D2"/>
				<stop  offset="0.2376" style="stop-color:#DCEBC0"/>
				<stop  offset="0.3169" style="stop-color:#C8E1A6"/>
				<stop  offset="0.4041" style="stop-color:#ABD17D"/>
				<stop  offset="0.4966" style="stop-color:#89BA4A"/>
				<stop  offset="0.5562" style="stop-color:#6FA742"/>
				<stop  offset="0.6403" style="stop-color:#649640"/>
				<stop  offset="0.8093" style="stop-color:#456730"/>
				<stop  offset="0.8315" style="stop-color:#435F2C"/>
				<stop  offset="1" style="stop-color:#435F2C"/>
			</radialGradient>
			<path fill="url(#SVGID_9_)" d="M43.66,29.69c1.95,0,3.54,1.03,3.54,2.3c0,1.27-1.59,2.3-3.54,2.3s-3.54-1.03-3.54-2.3
				C40.12,30.72,41.71,29.69,43.66,29.69z"/>
			
				<radialGradient id="SVGID_10_" cx="21.3496" cy="-52.5557" r="153.9519" gradientTransform="matrix(1 0 0 0.8933 0 -5.6061)" gradientUnits="userSpaceOnUse">
				<stop  offset="0" style="stop-color:#F9F9FA"/>
				<stop  offset="0.2487" style="stop-color:#F6F6F6"/>
				<stop  offset="0.4454" style="stop-color:#ECECEC"/>
				<stop  offset="0.6244" style="stop-color:#DCDBDB"/>
				<stop  offset="0.7929" style="stop-color:#C4C4C4"/>
				<stop  offset="0.9525" style="stop-color:#A7A6A6"/>
				<stop  offset="1" style="stop-color:#9B9B9B"/>
			</radialGradient>
			<path fill="url(#SVGID_10_)" d="M43.46,49.59v2.351H8.16c-0.02,0-0.05,0-0.07,0C7.77,51.93,7.47,51.89,7.17,51.81
				C7.05,51.78,6.94,51.74,6.83,51.69c-0.09-0.03-0.17-0.061-0.25-0.101c-2.07-1-3.63-3.96-3.63-7.35V25.25
				c0-3.78,2.39-6.97,5.21-6.97h35.3v2.74c-7.89,0-14.28,6.4-14.28,14.29C29.18,43.2,35.57,49.59,43.46,49.59z M22.91,25.23
				c0-1.52-0.96-2.76-2.15-2.76h-9.39c-0.59,0-1.13,0.31-1.52,0.81s-0.63,1.19-0.63,1.95c0,1.52,0.96,2.76,2.15,2.76h9.39
				C21.95,27.99,22.91,26.75,22.91,25.23z"/>
			
				<radialGradient id="SVGID_11_" cx="13.9121" cy="-10.2998" r="8.0314" gradientTransform="matrix(1 0 0 1.2812 0 2.8963)" gradientUnits="userSpaceOnUse">
				<stop  offset="0" style="stop-color:#F9F9FA"/>
				<stop  offset="0.2487" style="stop-color:#F6F6F6"/>
				<stop  offset="0.4454" style="stop-color:#ECECEC"/>
				<stop  offset="0.6244" style="stop-color:#DCDBDB"/>
				<stop  offset="0.7929" style="stop-color:#C4C4C4"/>
				<stop  offset="0.9525" style="stop-color:#A7A6A6"/>
				<stop  offset="1" style="stop-color:#9B9B9B"/>
			</radialGradient>
			<path fill="url(#SVGID_11_)" d="M20.76,22.47c1.19,0,2.15,1.24,2.15,2.76s-0.96,2.76-2.15,2.76h-9.39
				c-1.19,0-2.15-1.24-2.15-2.76c0-0.76,0.24-1.45,0.63-1.95s0.93-0.81,1.52-0.81H20.76z M21.74,25.23c0-0.91-0.52-1.58-0.98-1.58
				h-9.39c-0.46,0-0.98,0.67-0.98,1.58c0,0.9,0.52,1.58,0.98,1.58h9.39C21.22,26.81,21.74,26.13,21.74,25.23z"/>
			<radialGradient id="SVGID_12_" cx="14.6943" cy="24.9346" r="205.8921" gradientUnits="userSpaceOnUse">
				<stop  offset="0" style="stop-color:#F9F9FA"/>
				<stop  offset="0.2487" style="stop-color:#F6F6F6"/>
				<stop  offset="0.4454" style="stop-color:#ECECEC"/>
				<stop  offset="0.6244" style="stop-color:#DCDBDB"/>
				<stop  offset="0.7929" style="stop-color:#C4C4C4"/>
				<stop  offset="0.9525" style="stop-color:#A7A6A6"/>
				<stop  offset="1" style="stop-color:#9B9B9B"/>
			</radialGradient>
			<path fill="url(#SVGID_12_)" d="M20.76,23.65c0.46,0,0.98,0.67,0.98,1.58c0,0.9-0.52,1.58-0.98,1.58h-9.39
				c-0.46,0-0.98-0.68-0.98-1.58c0-0.91,0.52-1.58,0.98-1.58H20.76z"/>
			
				<radialGradient id="SVGID_13_" cx="12.7402" cy="-9.3511" r="30.8866" gradientTransform="matrix(1 0 0 0.8122 0 -1.7558)" gradientUnits="userSpaceOnUse">
				<stop  offset="0" style="stop-color:#F9F9FA"/>
				<stop  offset="0.2487" style="stop-color:#F6F6F6"/>
				<stop  offset="0.4454" style="stop-color:#ECECEC"/>
				<stop  offset="0.6244" style="stop-color:#DCDBDB"/>
				<stop  offset="0.7929" style="stop-color:#C4C4C4"/>
				<stop  offset="0.9525" style="stop-color:#A7A6A6"/>
				<stop  offset="1" style="stop-color:#9B9B9B"/>
			</radialGradient>
			<path fill="url(#SVGID_13_)" d="M20.57,12.41c0.01,0.8-0.04,1.43-1.84,1.48c0.72-0.17,0.66-0.59,0.66-1.07
				c0-0.15-0.04-0.28-0.12-0.41H20.57z"/>
			
				<radialGradient id="SVGID_14_" cx="12.7402" cy="-9.3511" r="30.8866" gradientTransform="matrix(1 0 0 0.8122 0 -1.7558)" gradientUnits="userSpaceOnUse">
				<stop  offset="0" style="stop-color:#F9F9FA"/>
				<stop  offset="0.2487" style="stop-color:#F6F6F6"/>
				<stop  offset="0.4454" style="stop-color:#ECECEC"/>
				<stop  offset="0.6244" style="stop-color:#DCDBDB"/>
				<stop  offset="0.7929" style="stop-color:#C4C4C4"/>
				<stop  offset="0.9525" style="stop-color:#A7A6A6"/>
				<stop  offset="1" style="stop-color:#9B9B9B"/>
			</radialGradient>
			<path fill="url(#SVGID_14_)" d="M20.57,12.18c0,0.07,0,0.15,0,0.23h-1.3c-0.25-0.44-0.97-0.74-2.23-0.74H14
				c-0.87,0-1.54,0.13-1.99,0.33c-0.25,0.11-0.43,0.25-0.54,0.41h-1.43c0-0.07,0-0.15,0-0.23c0-0.48,0.32-0.91,0.9-1.22
				c0.59-0.32,1.44-0.51,2.52-0.51h4.23C19.81,10.45,20.57,11.23,20.57,12.18z"/>
			
				<radialGradient id="SVGID_15_" cx="14.6938" cy="5.5679" r="17.8499" gradientTransform="matrix(1 0 0 0.7104 0 1.6123)" gradientUnits="userSpaceOnUse">
				<stop  offset="0" style="stop-color:#F9F9FA"/>
				<stop  offset="0.2487" style="stop-color:#F6F6F6"/>
				<stop  offset="0.4454" style="stop-color:#ECECEC"/>
				<stop  offset="0.6244" style="stop-color:#DCDBDB"/>
				<stop  offset="0.7929" style="stop-color:#C4C4C4"/>
				<stop  offset="0.9525" style="stop-color:#A7A6A6"/>
				<stop  offset="1" style="stop-color:#9B9B9B"/>
			</radialGradient>
			<path fill="url(#SVGID_15_)" d="M19.39,12.82c0,0.48,0.06,0.9-0.66,1.07c-0.09,0.01-0.19,0.01-0.29,0.01h-6.28
				c-0.04,0-0.08,0-0.12,0c-0.72-0.18-0.72-0.59-0.72-1.08c0-0.15,0.05-0.28,0.15-0.41h7.8C19.35,12.54,19.39,12.67,19.39,12.82z"/>
			
				<radialGradient id="SVGID_16_" cx="14.6938" cy="5.5679" r="17.8499" gradientTransform="matrix(1 0 0 0.7104 0 1.6123)" gradientUnits="userSpaceOnUse">
				<stop  offset="0" style="stop-color:#F9F9FA"/>
				<stop  offset="0.2487" style="stop-color:#F6F6F6"/>
				<stop  offset="0.4454" style="stop-color:#ECECEC"/>
				<stop  offset="0.6244" style="stop-color:#DCDBDB"/>
				<stop  offset="0.7929" style="stop-color:#C4C4C4"/>
				<stop  offset="0.9525" style="stop-color:#A7A6A6"/>
				<stop  offset="1" style="stop-color:#9B9B9B"/>
			</radialGradient>
			<path fill="url(#SVGID_16_)" d="M19.27,12.41h-7.8c0.11-0.16,0.29-0.3,0.54-0.41c0.45-0.2,1.12-0.33,1.99-0.33h3.04
				C18.3,11.67,19.02,11.97,19.27,12.41z"/>
			
				<radialGradient id="SVGID_17_" cx="14.6938" cy="5.5679" r="17.8499" gradientTransform="matrix(1 0 0 0.7104 0 1.6123)" gradientUnits="userSpaceOnUse">
				<stop  offset="0" style="stop-color:#F9F9FA"/>
				<stop  offset="0.2487" style="stop-color:#F6F6F6"/>
				<stop  offset="0.4454" style="stop-color:#ECECEC"/>
				<stop  offset="0.6244" style="stop-color:#DCDBDB"/>
				<stop  offset="0.7929" style="stop-color:#C4C4C4"/>
				<stop  offset="0.9525" style="stop-color:#A7A6A6"/>
				<stop  offset="1" style="stop-color:#9B9B9B"/>
			</radialGradient>
			<path fill="url(#SVGID_17_)" d="M18.44,13.9c0.1,0,0.2,0,0.29-0.01c-0.23,0.06-0.55,0.09-0.97,0.09h-4.81
				c-0.39,0-0.69-0.03-0.91-0.08c0.04,0,0.08,0,0.12,0H18.44z"/>
			
				<radialGradient id="SVGID_18_" cx="12.7402" cy="-9.3511" r="30.8866" gradientTransform="matrix(1 0 0 0.8122 0 -1.7558)" gradientUnits="userSpaceOnUse">
				<stop  offset="0" style="stop-color:#F9F9FA"/>
				<stop  offset="0.2487" style="stop-color:#F6F6F6"/>
				<stop  offset="0.4454" style="stop-color:#ECECEC"/>
				<stop  offset="0.6244" style="stop-color:#DCDBDB"/>
				<stop  offset="0.7929" style="stop-color:#C4C4C4"/>
				<stop  offset="0.9525" style="stop-color:#A7A6A6"/>
				<stop  offset="1" style="stop-color:#9B9B9B"/>
			</radialGradient>
			<path fill="url(#SVGID_18_)" d="M11.32,12.82c0,0.49,0,0.9,0.72,1.08c-1.83-0.03-1.99-0.67-2-1.49h1.43
				C11.37,12.54,11.32,12.67,11.32,12.82z"/>
			<radialGradient id="SVGID_19_" cx="35.4385" cy="8.1074" r="208.6478" gradientUnits="userSpaceOnUse">
				<stop  offset="0" style="stop-color:#F9F9FA"/>
				<stop  offset="0.2487" style="stop-color:#F6F6F6"/>
				<stop  offset="0.4454" style="stop-color:#ECECEC"/>
				<stop  offset="0.6244" style="stop-color:#DCDBDB"/>
				<stop  offset="0.7929" style="stop-color:#C4C4C4"/>
				<stop  offset="0.9525" style="stop-color:#A7A6A6"/>
				<stop  offset="1" style="stop-color:#9B9B9B"/>
			</radialGradient>
			<path fill="url(#SVGID_19_)" d="M7.17,51.81c0.3,0.08,0.6,0.12,0.92,0.131C7.78,51.94,7.47,51.9,7.17,51.81z"/>
			
				<radialGradient id="SVGID_20_" cx="21.3496" cy="-52.5557" r="153.9519" gradientTransform="matrix(1 0 0 0.8933 0 -5.6061)" gradientUnits="userSpaceOnUse">
				<stop  offset="0" style="stop-color:#F9F9FA"/>
				<stop  offset="0.2487" style="stop-color:#F6F6F6"/>
				<stop  offset="0.4454" style="stop-color:#ECECEC"/>
				<stop  offset="0.6244" style="stop-color:#DCDBDB"/>
				<stop  offset="0.7929" style="stop-color:#C4C4C4"/>
				<stop  offset="0.9525" style="stop-color:#A7A6A6"/>
				<stop  offset="1" style="stop-color:#9B9B9B"/>
			</radialGradient>
			<path fill="url(#SVGID_20_)" d="M6.58,51.59c0.08,0.04,0.16,0.07,0.25,0.101C6.75,51.67,6.66,51.63,6.58,51.59z"/>
			
				<radialGradient id="SVGID_21_" cx="21.3496" cy="-52.5557" r="153.9519" gradientTransform="matrix(1 0 0 0.8933 0 -5.6061)" gradientUnits="userSpaceOnUse">
				<stop  offset="0" style="stop-color:#F9F9FA"/>
				<stop  offset="0.2487" style="stop-color:#F6F6F6"/>
				<stop  offset="0.4454" style="stop-color:#ECECEC"/>
				<stop  offset="0.6244" style="stop-color:#DCDBDB"/>
				<stop  offset="0.7929" style="stop-color:#C4C4C4"/>
				<stop  offset="0.9525" style="stop-color:#A7A6A6"/>
				<stop  offset="1" style="stop-color:#9B9B9B"/>
			</radialGradient>
			<path fill="url(#SVGID_21_)" d="M6.58,51.59c-2.08-0.91-3.63-3.57-3.63-6.62V44.24C2.95,47.63,4.51,50.59,6.58,51.59z"/>
		</g>
		<g>
			<path fill="none" stroke="#FFFFFF" d="M20.76,26.81h-9.39c-0.46,0-0.98-0.68-0.98-1.58c0-0.91,0.52-1.58,0.98-1.58h9.39
				c0.46,0,0.98,0.67,0.98,1.58C21.74,26.13,21.22,26.81,20.76,26.81z"/>
		</g>
	</g>
</g>
<line fill="none" x1="15.306" y1="4.5" x2="47.2" y2="4.5"/>
<path fill="#EF4529" stroke="#000000" stroke-width="4" d="M31.52,35.31"/>
<path fill="#EF4529" stroke="#000000" d="M19.392,29.69"/>
</svg>
